<svg width="512" height="512" viewBox="0 0 512 512" fill="none" xmlns="http://www.w3.org/2000/svg">
<g clip-path="url(#clip0_66_100)">
<circle cx="256" cy="256" r="256" fill="#8673FF"/>
<path d="M34 349.5C84.5 472.5 319.5 612.5 477.5 355C339.565 304.161 239.239 309.641 34 349.5Z" fill="#0383DE"/>
<path d="M129 367C94.5 376.5 77.3333 405.667 75 412.5L41.5 351.5C93.3333 338.333 267.7 313.1 272.5 327.5C278.5 345.5 163.5 357.5 129 367Z" fill="#16D1FA"/>
<path d="M165 265L126.5 325C342.1 303.8 448.667 333.833 475 351.5L486 307L381.5 159.5L319.5 270L257 195.5L200.5 278.5L165 265Z" fill="black" stroke="black" stroke-width="15" stroke-linecap="round" stroke-linejoin="round"/>
<path d="M302.716 412.729C231.517 364.431 206.388 456.637 229.124 488L344 484.236L318.871 421.511L302.716 412.729Z" fill="#ABE105"/>
<path d="M313 421C297.5 375.5 222.5 459 253 488L343.5 484.5L332 472.5L313 421Z" fill="#6EDD0C"/>
<path d="M338.5 404.5C275.216 440.445 263 486.5 263 486.5L289 489L326 482C372 472 457 395 469 355C457 345 419 329 403.5 330C396 356.5 401.784 368.555 338.5 404.5Z" fill="#489108"/>
<path d="M223.48 485C187.183 412.229 314.222 338.427 336 477.258" stroke="black" stroke-width="19"/>
<path d="M44.5 348C121.216 326.332 341 298.5 462.5 348" stroke="black" stroke-width="25"/>
<path d="M410.902 208.307C410.829 208.053 410.716 207.813 410.568 207.595L408.5 209C410.568 207.595 410.567 207.594 410.567 207.594L410.567 207.593L410.564 207.59L410.555 207.576L410.519 207.523L410.377 207.316C410.254 207.134 410.071 206.868 409.835 206.524C409.362 205.837 408.676 204.843 407.818 203.612C406.102 201.149 403.698 197.737 400.945 193.934C395.456 186.354 388.516 177.137 382.861 170.831C382.307 170.212 381.481 169.91 380.658 170.024C379.835 170.137 379.122 170.652 378.756 171.398L365.256 198.898C364.853 199.72 364.93 200.695 365.458 201.443C365.986 202.19 366.88 202.589 367.789 202.483C377.997 201.296 387.918 203.723 395.355 206.378C399.057 207.7 402.101 209.063 404.228 210.035C404.412 210.119 404.591 210.201 404.766 210.282C405.572 210.651 406.272 210.972 406.775 211.178C407.038 211.285 407.457 211.452 407.866 211.53C407.985 211.553 408.172 211.582 408.395 211.584C408.591 211.586 409.004 211.571 409.471 211.368C410.018 211.13 410.602 210.639 410.87 209.85C411.101 209.167 410.982 208.584 410.902 208.307ZM408.282 209.063C407.941 208.979 407.216 208.654 406.161 208.171C406.366 207.623 406.729 207.232 407.113 206.981L408.282 209.063Z" fill="#D9D9D9" stroke="#D9D9D9" stroke-width="5" stroke-linejoin="round"/>
<path d="M155 88H193.5" stroke="#FDBF35" stroke-width="7" stroke-linecap="round"/>
<path d="M155 88H193.5" stroke="#FDBF35" stroke-width="7" stroke-linecap="round"/>
<path d="M155 88H193.5" stroke="#FDBF35" stroke-width="7" stroke-linecap="round"/>
<path d="M129.901 129.407L169.099 160.593" stroke="#FDBF35" stroke-width="7" stroke-linecap="round"/>
<path d="M129.901 129.407L169.099 160.593" stroke="#FDBF35" stroke-width="7" stroke-linecap="round"/>
<path d="M129.901 129.407L169.099 160.593" stroke="#FDBF35" stroke-width="7" stroke-linecap="round"/>
<path fill-rule="evenodd" clip-rule="evenodd" d="M52.3901 137.082C52.8979 137.441 53.4172 137.795 53.9481 138.142C101.987 169.599 170.521 84.4434 122.888 52.4116C104.419 66.71 72.2556 109.024 52.3901 137.082Z" fill="#FDBF35"/>
<path d="M84 155L91 196" stroke="#FDBF35" stroke-width="7" stroke-linecap="round"/>
<path d="M84 155L91 196" stroke="#FDBF35" stroke-width="7" stroke-linecap="round"/>
<path d="M84 155L91 196" stroke="#FDBF35" stroke-width="7" stroke-linecap="round"/>
<circle cx="256" cy="256" r="240.5" stroke="black" stroke-width="31"/>
</g>
<defs>
<clipPath id="clip0_66_100">
<rect width="512" height="512" fill="white"/>
</clipPath>
</defs>
</svg>
